<svg xmlns="http://www.w3.org/2000/svg" viewBox="0 0 256 256" role="img" aria-labelledby="title">
  <title>Chat bubble icon</title>
  <defs>
    <linearGradient id="bg" x1="24" y1="16" x2="232" y2="240" gradientUnits="userSpaceOnUse">
      <stop offset="0" stop-color="#3B3F52"/>
      <stop offset="1" stop-color="#1E1F26"/>
    </linearGradient>
    <linearGradient id="accent" x1="48" y1="36" x2="214" y2="220" gradientUnits="userSpaceOnUse">
      <stop offset="0" stop-color="#5865F2"/>
      <stop offset="1" stop-color="#8B5CF6"/>
    </linearGradient>
    <filter id="softShadow" x="-20%" y="-20%" width="140%" height="140%">
      <feDropShadow dx="0" dy="12" stdDeviation="12" flood-color="#000000" flood-opacity="0.32"/>
    </filter>
  </defs>
  <rect width="256" height="256" rx="58" fill="url(#bg)"/>
  <circle cx="206" cy="48" r="22" fill="url(#accent)" opacity="0.55"/>
  <circle cx="44" cy="210" r="30" fill="#5865F2" opacity="0.14"/>
  <g filter="url(#softShadow)">

    <path d="M55 78c0-18.2 14.8-33 33-33h80c18.2 0 33 14.8 33 33v55c0 18.2-14.8 33-33 33h-37l-44 34c-5.3 4.1-13 .3-13-6.4v-30.1C62.8 158.5 55 147.2 55 134V78Z" fill="url(#accent)"/>
    <circle cx="95" cy="107" r="10" fill="#F6F7FB"/>
    <circle cx="128" cy="107" r="10" fill="#F6F7FB"/>
    <circle cx="161" cy="107" r="10" fill="#F6F7FB"/>
    <path d="M91 136h74" stroke="#F6F7FB" stroke-width="12" stroke-linecap="round" opacity=".8"/>

  </g>
</svg>
